Coordinates
version=1
nRows=13
nColumns=36
inDegrees=yes

Units are S.I. units (second, meters, Newtons, ...)
If the header above contains a line with 'inDegrees', this indicates whether rotational values are in degrees (yes) or radians (no).

endheader
time	pelvis_tilt	pelvis_list	pelvis_rotation	pelvis_tx	pelvis_ty	pelvis_tz	hip_flexion_r	hip_adduction_r	hip_rotation_r	knee_angle_r	knee_angle_r_beta	ankle_angle_r	subtalar_angle_r	mtp_angle_r	hip_flexion_l	hip_adduction_l	hip_rotation_l	knee_angle_l	knee_angle_l_beta	ankle_angle_l	subtalar_angle_l	mtp_angle_l	lumbar_extension	lumbar_bending	lumbar_rotation	arm_flex_r	arm_add_r	arm_rot_r	elbow_flex_r	pro_sup_r	arm_flex_l	arm_add_l	arm_rot_l	elbow_flex_l	pro_sup_l
      5.90000000	    -15.24275347	     -0.46438466	      1.51132050	      0.42021054	      0.90909304	     -0.13000089	     17.65528879	     -5.89909945	    -11.13622652	      6.11242566	      0.10668195	     -2.62627803	     -7.20529114	     -7.49999987	     14.46721328	     -6.44552000	     -7.41411807	      5.59023953	      0.09756809	      1.69946935	      1.49101183	     -7.49999987	     -8.11128319	      2.10120266	     10.32065991	    -46.97176672	    -18.26061002	    -92.67169382	     68.34862587	     75.21096018	     -0.86618668	    -37.28755499	    -48.46126615	     41.46444211	     92.08423189
      5.90416670	    -15.18809220	     -0.50183047	      1.56671175	      0.42140846	      0.90537150	     -0.13168278	     17.25782618	     -5.90770664	    -11.40021634	      5.71327938	      0.09971554	     -2.75332265	     -7.07936156	     -7.49999987	     14.02471607	     -6.34249895	     -7.31807270	      5.08274718	      0.08871067	      1.70953723	      1.46753763	     -7.49999987	     -7.91860822	      2.17242734	     10.08652929	    -47.12307048	    -18.51477073	    -92.46457941	     68.48345945	     74.30171573	     -1.49396801	    -37.16897919	    -48.44272130	     42.56329618	     90.96211798
      5.90833330	    -15.24078644	     -0.58563788	      1.57564571	      0.41982456	      0.90479288	     -0.12997246	     17.09908996	     -5.79657563	    -11.33864784	      5.40200548	      0.09428278	     -2.79593118	     -7.09720625	     -7.49999987	     13.74845973	     -6.34262620	     -7.40303679	      4.54802475	      0.07937801	      1.88194768	      1.82884839	     -7.49999987	     -7.54942075	      2.30254770	     10.45491958	    -47.53342215	    -18.41675971	    -92.89795846	     68.56686474	     75.10291219	     -0.58106881	    -37.00276741	    -48.95058280	     42.85641257	     93.02731915
      5.91250000	    -15.25167521	     -0.64307080	      1.69802256	      0.42215397	      0.90306201	     -0.13208264	     16.87489910	     -5.80763252	    -11.48545782	      5.10978438	      0.08918256	     -2.75784041	     -7.01285200	     -7.49999987	     13.46309306	     -6.27518463	     -7.27298875	      4.10881064	      0.07171227	      2.01317734	      1.90407507	     -7.49999987	     -7.29420362	      2.41481713	     10.26616127	    -47.67375817	    -18.95228401	    -92.70728523	     68.35091348	     74.33812501	     -0.95400422	    -37.05980061	    -48.86949142	     43.41625570	     91.95774859
      5.91666670	    -15.29795870	     -0.68025556	      1.75524716	      0.42130579	      0.90437980	     -0.13148258	     16.73301520	     -5.79297224	    -11.44481326	      4.82074042	      0.08413779	     -2.71221729	     -6.89412666	     -7.49999987	     13.19965284	     -6.21311514	     -7.10919494	      3.59568620	      0.06275656	      2.12048744	      2.00732853	     -7.49999987	     -7.00214557	      2.44720028	     10.11521920	    -47.59602409	    -19.60224970	    -92.44862049	     68.11341104	     73.64422781	     -0.91947726	    -37.07342954	    -48.75669936	     43.95451689	     90.97945394
      5.92083330	    -15.30783663	     -0.69111149	      1.81220680	      0.42154743	      0.90580326	     -0.13087163	     16.59243551	     -5.78876561	    -11.37979634	      4.59093043	      0.08012685	     -2.74787092	     -6.92187814	     -7.49999987	     12.95282255	     -6.15986118	     -7.20933022	      3.17348385	      0.05538774	      2.28479340	      2.47954622	     -7.49999987	     -6.49866604	      2.64331928	     11.88249428	    -49.03523234	    -18.57224156	    -93.61384745	     67.42529192	     75.03264473	      3.24683046	    -37.05112758	    -46.34124324	     41.41791881	     94.53421846
      5.92500000	    -15.44037396	     -0.75840256	      1.85753196	      0.42139278	      0.90247405	     -0.13002694	     16.63604494	     -5.68937827	    -11.35844631	      4.43293906	      0.07736938	     -2.68175519	     -6.91373825	     -7.49999987	     12.85820854	     -6.17642627	     -7.14948698	      2.80262623	      0.04891506	      2.34018148	      2.55640137	     -7.49999987	     -6.13674576	      2.69872091	     11.71414171	    -49.00175165	    -18.99891806	    -93.42304291	     67.40432518	     74.46787261	      3.15736808	    -37.09958813	    -46.17494901	     42.11983373	     93.68626580
      5.92916670	    -15.35796278	     -0.78405001	      1.93689848	      0.42223598	      0.90515356	     -0.13046072	     16.36647083	     -5.63543671	    -11.39042936	      4.20756771	      0.07343591	     -2.59740618	     -6.84459952	     -7.49999987	     12.53824259	     -6.15139382	     -6.92583436	      2.42350865	      0.04229821	      2.36157660	      2.53017834	     -7.49999987	     -6.14871173	      2.60596257	     11.15801652	    -48.52971826	    -19.65666468	    -92.65780031	     67.22202646	     72.54549374	      2.36459404	    -37.20046137	    -46.19798369	     43.26274190	     90.89587006
      5.93333330	    -15.34952928	     -0.80194298	      1.86446017	      0.42252019	      0.90253203	     -0.12994570	     16.29890853	     -5.53294397	    -11.19160454	      4.05714821	      0.07081059	     -2.49340703	     -7.02364772	     -7.49999987	     12.37124316	     -6.22784949	     -7.15851986	      2.23038511	      0.03892756	      2.61811732	      2.82299921	     -7.49999987	     -5.79846426	      2.76335372	     12.63414490	    -49.62097764	    -18.69280296	    -93.69457819	     66.63353391	     74.91945098	      5.66393580	    -37.22678750	    -43.94825735	     40.74776578	     95.33066835
      5.93750000	    -15.37013626	     -0.84912279	      1.83041585	      0.42291473	      0.89997381	     -0.12955024	     16.21027738	     -5.40971851	    -11.17588671	      3.88116664	      0.06773914	     -2.39924361	     -7.09061706	     -7.49999987	     12.21358663	     -6.32346443	     -7.25207795	      1.97960102	      0.03455056	      2.80629825	      2.88436792	     -7.49999987	     -5.55967875	      2.82138179	     12.76744601	    -49.77968484	    -18.86914206	    -93.69398237	     66.39580040	     75.04952619	      6.08565726	    -37.15569432	    -43.89777019	     41.09680306	     96.16631613
      5.94166670	    -15.38516127	     -0.87558504	      1.93914757	      0.42480348	      0.90356123	     -0.12985110	     16.00315927	     -5.36085918	    -11.18593097	      3.64730572	      0.06365749	     -2.31550389	     -7.07303990	     -7.49999987	     12.05416957	     -6.35480875	     -7.20948436	      1.73836733	      0.03034023	      2.87707754	      2.95231709	     -7.49999987	     -5.32148619	      2.82040667	     12.69702900	    -49.67875071	    -18.99963111	    -93.58572859	     66.08684933	     75.42815099	      6.55932051	    -37.09277926	    -44.02351143	     41.07781133	     96.83001045
      5.94583330	    -15.41547610	     -0.89344174	      1.99593246	      0.42517675	      0.90234157	     -0.13096725	     15.82431358	     -5.33227880	    -11.15415457	      3.39268938	      0.05921360	     -2.13820369	     -7.08561294	     -7.49999987	     11.92348630	     -6.37198423	     -7.33465750	      1.52405279	      0.02659974	      3.07225769	      3.28809180	     -7.49999987	     -5.18435375	      2.79507381	     12.04513876	    -49.20496642	    -19.85846591	    -92.78823142	     65.79056940	     73.50793652	      5.47123357	    -37.08767840	    -44.58359482	     42.11872456	     93.37559381
      5.95000000	    -15.47024627	     -0.93728538	      2.00744813	      0.42462210	      0.89601430	     -0.12910715	     15.81012826	     -5.23866702	    -11.25426152	      3.31312791	      0.05782499	     -1.97031967	     -7.20447186	     -7.49999987	     11.88464030	     -6.44920022	     -7.32800428	      1.40419402	      0.02450781	      3.27975725	      3.32788365	     -7.49999987	     -4.92614017	      2.85386572	     12.05836779	    -49.24297865	    -20.17136202	    -92.83140292	     65.80529296	     73.52837223	      5.62817462	    -37.14176985	    -44.56067610	     42.27753414	     93.38994365
